<svg height="512" viewBox="0 0 176 176" width="512" xmlns="http://www.w3.org/2000/svg" xmlns:xlink="http://www.w3.org/1999/xlink"><linearGradient id="linear-gradient" gradientUnits="userSpaceOnUse" x1="25.77" x2="150.23" y1="25.77" y2="150.23"><stop offset="0" stop-color="#fdc80e"/><stop offset="1" stop-color="#eb513b"/></linearGradient><g id="Layer_2" data-name="Layer 2"><g id="_82.correct" data-name="82.correct"><rect id="background" fill="url(#linear-gradient)" height="176" rx="88" width="176"/><path id="icon" d="m77.29 102.09 8.09-11.84q12.27-18 24.55-35.91c2.43-3.53 5.67-4 9.18-1.64 1.31.89 2.64 1.73 3.93 2.64 3.22 2.28 3.88 5.62 1.65 8.89q-13.11 19.26-26.28 38.49-6.41 9.35-12.74 18.71c-2.48 3.68-5.69 4.39-9.34 1.82q-11.73-8.25-23.33-16.69c-3.47-2.51-3.88-5.75-1.38-9.23 1-1.36 1.93-2.74 2.94-4.08 2.08-2.74 5.21-3.43 8.1-1.53 3.37 2.22 6.61 4.65 9.91 7z" fill="#fff"/></g></g></svg>